# xmcd
#
# Track frame offsets: 
#        150
#        13129
#        22272
#        37672
#        51411
#        72725
#        95966
#        115230
#        133790
#        165326
#        184503
#        197041
#        215356
#        233461
#        251962
#        275435
#        290931
#
# Disc length: 4347 seconds
#
# Revision: 3
# Processed by: cddbd v1.5.2PL0 Copyright (c) Steve Scherf et al.
# Submitted via: ExactAudioCopy v1.0b3
#
DISCID=0710f911
DTITLE=Fleetwood Mac - Green Shadows
DYEAR=2003
DGENRE=Blues
TTITLE0=Man Of The World 
TTITLE1=Long Grey Mare
TTITLE2=Lazy Poker Blues 
TTITLE3=The Sun Is Shining 
TTITLE4=The Green Manalishi 
TTITLE5=Looking For Somebody (Live)
TTITLE6=Dust My Blues (Live) 
TTITLE7=Showbiz Blues 
TTITLE8=Black Magic Woman 
TTITLE9=Love That Burns 
TTITLE10=Oh Well 
TTITLE11=Shake Your Moneymaker 
TTITLE12=No Place To Go 
TTITLE13=Got To Move (Live) 
TTITLE14=Jumping At Shadows
TTITLE15=World In Harmony 
TTITLE16=Rattlesnake Shake (Live)
EXTD=ID3G: 0
EXTT0=
EXTT1=
EXTT2=
EXTT3=
EXTT4=
EXTT5=
EXTT6=
EXTT7=
EXTT8=
EXTT9=
EXTT10=
EXTT11=
EXTT12=
EXTT13=
EXTT14=
EXTT15=
EXTT16=
PLAYORDER=
